<svg width="16" height="16" viewBox="0 0 16 16" fill="none" xmlns="http://www.w3.org/2000/svg">
<rect width="16" height="16" fill="#0C3232"/>
<path d="M13 4.5V12.8095C13 12.9167 12.9167 13 12.8095 13H11.6191C11.5119 13 11.4286 12.9167 11.4286 12.8095V4.76191C11.4286 4.65476 11.3452 4.57143 11.2381 4.57143H3.19048C3.08333 4.57143 3 4.4881 3 4.38095V3.19048C3 3.08333 3.08333 3 3.19048 3H11.5C11.6071 3 11.6905 3.08333 11.6905 3.19048V4.11905C11.6905 4.22619 11.7738 4.30952 11.881 4.30952H12.8095C12.9167 4.30952 13 4.39286 13 4.5Z" fill="white"/>
<path d="M10.5357 6.57203L4.22621 12.8697C4.15478 12.9411 4.02382 12.9411 3.9524 12.8697L3.11906 12.0125C3.04763 11.9411 3.04763 11.822 3.11906 11.7387C5.22621 9.64346 7.32144 7.54822 9.42859 5.45299C9.50002 5.38156 9.63097 5.38156 9.7024 5.45299L10.5476 6.29822C10.6191 6.36965 10.6191 6.5006 10.5357 6.57203Z" fill="white"/>
</svg>
